<svg width="1277" height="16" viewBox="0 0 1277 16" fill="none" xmlns="http://www.w3.org/2000/svg">
<path d="M-0.000177383 7.63086C-0.00017765 10.6831 2.47414 13.1574 5.52637 13.1574C8.57859 13.1574 11.0529 10.6831 11.0529 7.63086C11.0529 4.57863 8.57859 2.10432 5.52637 2.10431C2.47414 2.10431 -0.000177117 4.57863 -0.000177383 7.63086ZM1276.26 8.36369C1276.66 7.95902 1276.66 7.30292 1276.26 6.89825L1269.66 0.303738C1269.26 -0.100934 1268.6 -0.100934 1268.2 0.303737C1267.79 0.70841 1267.79 1.36451 1268.2 1.76918L1274.06 7.63097L1268.2 13.4928C1267.79 13.8974 1267.79 14.5535 1268.2 14.9582C1268.6 15.3629 1269.26 15.3629 1269.66 14.9582L1276.26 8.36369ZM5.52637 7.63086L5.52637 8.66709L1275.53 8.6672L1275.53 7.63097L1275.53 6.59474L5.52637 6.59463L5.52637 7.63086Z" fill="#101010"/>
</svg>
