<svg width="393" height="595" viewBox="0 0 393 595" fill="none" xmlns="http://www.w3.org/2000/svg">
<path d="M207.937 9.41753e-05C206.515 9.4051e-05 205.362 1.15268 205.362 2.57446C205.362 3.99625 206.515 5.14883 207.937 5.14883C209.358 5.14883 210.511 3.99625 210.511 2.57446C210.511 1.15268 209.358 9.42996e-05 207.937 9.41753e-05ZM207.595 594.506C207.784 594.694 208.089 594.694 208.278 594.506L211.35 591.434C211.538 591.245 211.538 590.94 211.35 590.751C211.161 590.563 210.856 590.563 210.667 590.751L207.936 593.482L205.206 590.751C205.017 590.563 204.712 590.563 204.523 590.751C204.335 590.94 204.335 591.245 204.523 591.434L207.595 594.506ZM207.937 2.57446L207.454 2.57446L207.454 594.164L207.936 594.164L208.419 594.164L208.419 2.57446L207.937 2.57446Z" fill="#101010"/>
<path d="M207.453 540.585C202.335 540.585 198.185 536.436 198.185 531.317C198.185 526.199 202.335 522.05 207.453 522.05C212.571 522.05 216.721 526.199 216.721 531.317C216.721 536.436 212.571 540.585 207.453 540.585ZM207.453 523.903C203.358 523.903 200.039 527.223 200.039 531.317C200.039 535.412 203.358 538.731 207.453 538.731C211.548 538.731 214.867 535.412 214.867 531.317C214.867 527.223 211.548 523.903 207.453 523.903Z" fill="#1E1E1E"/>
<circle cx="207.453" cy="531.318" r="5.40618" transform="rotate(90 207.453 531.318)" fill="#1E1E1E"/>
<path d="M153.945 531.993C153.945 530.855 153.023 529.933 151.885 529.933C150.748 529.933 149.826 530.855 149.826 531.993C149.826 533.13 150.748 534.052 151.885 534.052C153.023 534.052 153.945 533.13 153.945 531.993ZM189.729 531.993L189.729 531.607L151.885 531.607L151.885 531.993L151.885 532.379L189.729 532.379L189.729 531.993Z" fill="#1E1E1E"/>
<path d="M15.9836 526.993V518.675H18.5884V521.705H24.1783V518.675H26.7831V526.993H24.1783V523.717H18.5884V526.993H15.9836ZM30.5978 518.675V526.993H27.993V518.675H30.5978ZM37.2477 527.138H37.0129C32.5075 527.138 31.4678 524.623 31.4678 522.957V522.644C31.4678 521.023 32.3175 518.53 37.1024 518.53H37.5831C42.245 518.53 43.0388 520.553 43.0947 521.683V521.694H40.3221C40.255 521.504 39.9644 520.509 37.3595 520.509C34.8217 520.509 34.1957 521.604 34.1957 522.756V522.879C34.1957 523.963 35.0453 525.115 37.3372 525.115C39.819 525.115 40.5569 524.153 40.5569 523.93V523.907H37.2924V522.331H43.1506V526.993H41.5854C41.5519 526.691 41.3954 526.043 41.25 525.696C40.9035 526.121 39.819 527.138 37.2477 527.138ZM44.2712 526.993V518.675H46.876V521.705H52.4658V518.675H55.0707V526.993H52.4658V523.717H46.876V526.993H44.2712ZM56.0681 522.711H59.6568V524.634H56.0681V522.711ZM60.6476 518.675H69.2448V520.565H63.2413V521.794H69.0994V523.695H63.2413V526.993H60.6476V518.675ZM72.8818 518.675V526.993H70.277V518.675H72.8818ZM74.0872 526.993V518.675H79.5988C84.4172 518.675 85.4681 520.743 85.4681 522.61V522.946C85.4681 524.735 84.4731 527.004 79.61 526.993H74.0872ZM76.6921 520.643V524.992H79.3975C82.349 524.992 82.7403 523.695 82.7403 522.845V522.778C82.7403 521.929 82.3825 520.643 79.3975 520.643H76.6921ZM86.2931 518.675H95.058V520.565H88.8644V521.794H94.9126V523.695H88.8644V525.059H95.1698V526.993H86.2931V518.675ZM96.1845 518.675H98.7894V524.925H104.569V526.993H96.1845V518.675ZM108.069 518.675V526.993H105.464V518.675H108.069ZM112.528 526.993V520.643H108.951V518.675H118.744V520.643H115.155V526.993H112.528ZM123.246 526.993V523.773L118.796 518.675H122.027L124.609 521.738L127.237 518.675H130.177L125.85 523.773V526.993H123.246ZM136.755 518.888C137.165 518.888 137.519 518.958 137.817 519.1C138.123 519.234 138.357 519.428 138.521 519.681C138.693 519.935 138.778 520.248 138.778 520.621C138.778 521.098 138.626 521.504 138.32 521.839C138.015 522.174 137.634 522.476 137.18 522.745L139.159 524.656C139.337 524.418 139.487 524.153 139.606 523.863C139.725 523.564 139.826 523.248 139.908 522.912H141.115C141.003 523.374 140.85 523.822 140.657 524.254C140.47 524.679 140.228 525.063 139.93 525.405L141.562 526.993H140.019L139.147 526.154C138.969 526.296 138.786 526.426 138.6 526.546C138.413 526.665 138.212 526.766 137.996 526.848C137.787 526.922 137.56 526.982 137.314 527.026C137.068 527.079 136.8 527.105 136.509 527.105C135.972 527.105 135.507 527.019 135.112 526.848C134.717 526.669 134.411 526.415 134.195 526.087C133.986 525.752 133.882 525.353 133.882 524.891C133.882 524.511 133.945 524.183 134.072 523.907C134.206 523.632 134.396 523.389 134.642 523.181C134.895 522.965 135.19 522.76 135.525 522.566C135.361 522.379 135.208 522.189 135.067 521.996C134.933 521.794 134.821 521.586 134.731 521.37C134.649 521.153 134.608 520.919 134.608 520.665C134.608 520.293 134.694 519.976 134.866 519.715C135.044 519.447 135.294 519.242 135.615 519.1C135.943 518.958 136.323 518.888 136.755 518.888ZM136.229 523.292C135.998 523.434 135.801 523.579 135.637 523.728C135.48 523.87 135.354 524.03 135.257 524.209C135.167 524.381 135.123 524.586 135.123 524.824C135.123 525.204 135.253 525.51 135.514 525.741C135.782 525.964 136.133 526.076 136.565 526.076C136.975 526.076 137.329 526.013 137.627 525.886C137.933 525.759 138.193 525.603 138.41 525.417L136.229 523.292ZM136.721 519.838C136.446 519.838 136.215 519.909 136.028 520.05C135.842 520.192 135.749 520.404 135.749 520.688C135.749 520.934 135.812 521.165 135.939 521.381C136.066 521.589 136.244 521.817 136.475 522.063C136.878 521.832 137.172 521.612 137.359 521.403C137.545 521.187 137.638 520.941 137.638 520.665C137.638 520.412 137.552 520.211 137.381 520.062C137.21 519.912 136.99 519.838 136.721 519.838ZM27.0824 534.675V542.993H24.4775V534.675H27.0824ZM28.2877 534.675H31.1945L36.5048 539.907V534.675H39.0761V542.993H36.5048L30.8591 537.481V542.993H28.2877V534.675ZM43.5395 542.993V536.643H39.962V534.675H49.7554V536.643H46.1667V542.993H43.5395ZM50.6361 534.675H59.401V536.565H53.2075V537.794H59.2557V539.695H53.2075V541.059H59.5128V542.993H50.6361V534.675ZM63.1324 536.565V538.197H67.0788C67.8166 538.197 68.1297 537.839 68.1297 537.381V537.37C68.1297 536.934 67.839 536.565 67.0788 536.565H63.1324ZM63.1324 540.041V542.993H60.5275V534.675H67.2353C70.0079 534.675 70.8463 535.637 70.8463 536.833V536.967C70.8463 538.152 69.8513 538.622 69.3035 538.789C70.1532 539.013 70.8799 539.639 70.8799 540.701V541.92C70.8799 542.59 70.9693 542.803 71.0364 542.937V542.993H68.3868C68.3086 542.892 68.2638 542.758 68.2638 542.467V541.506C68.2638 540.489 67.8166 540.041 66.531 540.041H63.1324ZM78.6104 539.594L77.0006 536.475L75.4578 539.594H78.6104ZM80.3545 542.993L79.5719 541.472H74.5299L73.7808 542.993H71.1312L75.3348 534.675H78.711L83.1605 542.993H80.3545ZM88.5773 543.138H88.1189C83.3005 543.138 82.5514 540.455 82.5514 538.968V538.644C82.5514 537.135 83.211 534.53 88.1189 534.53H88.5773C93.4069 534.53 94.1336 536.833 94.1447 537.806V537.929H91.3834C91.3163 537.705 90.9921 536.542 88.3425 536.542C85.8494 536.542 85.2793 537.66 85.2793 538.7V538.834C85.2793 539.807 85.9389 541.115 88.3649 541.115C91.0591 541.115 91.3386 539.829 91.3945 539.639H94.1559V539.762C94.1559 540.813 93.3398 543.138 88.5773 543.138ZM98.0622 542.993V536.643H94.4847V534.675H104.278V536.643H100.689V542.993H98.0622ZM107.764 534.675V542.993H105.159V534.675H107.764ZM114.492 534.53H114.973C120.205 534.53 120.819 537.157 120.819 538.644V538.979C120.819 540.444 120.216 543.138 114.973 543.138H114.492C109.226 543.138 108.634 540.444 108.634 538.979V538.644C108.634 537.157 109.226 534.53 114.492 534.53ZM118.092 538.722C118.092 537.761 117.533 536.542 114.727 536.542C111.876 536.542 111.361 537.761 111.361 538.722V538.856C111.361 539.807 111.92 541.115 114.727 541.115C117.521 541.115 118.092 539.84 118.092 538.879V538.722ZM121.688 534.675H124.595L129.905 539.907V534.675H132.476V542.993H129.905L124.259 537.481V542.993H121.688V534.675Z" fill="#101010"/>
<path d="M153.945 298.755C153.945 297.618 153.023 296.696 151.885 296.696C150.748 296.696 149.826 297.618 149.826 298.755C149.826 299.893 150.748 300.815 151.885 300.815C153.023 300.815 153.945 299.893 153.945 298.755ZM189.729 298.755L189.729 298.369L151.885 298.369L151.885 298.755L151.885 299.141L189.729 299.141L189.729 298.755Z" fill="#1E1E1E"/>
<path d="M49.5019 293.755H46.6287L43.2078 285.437H46.0474L48.1939 291.161L50.0497 285.437H52.8223L54.7228 290.994L56.8246 285.437H59.3847L56.0196 293.755H53.3924L51.3913 288.188L49.5019 293.755ZM62.4255 285.437V293.755H59.8206V285.437H62.4255ZM66.2357 287.327V288.959H70.1822C70.92 288.959 71.233 288.601 71.233 288.143V288.132C71.233 287.696 70.9424 287.327 70.1822 287.327H66.2357ZM66.2357 290.804V293.755H63.6309V285.437H70.3387C73.1112 285.437 73.9497 286.399 73.9497 287.595V287.729C73.9497 288.914 72.9547 289.384 72.4069 289.552C73.2566 289.775 73.9832 290.401 73.9832 291.463V292.682C73.9832 293.353 74.0727 293.565 74.1398 293.699V293.755H71.4902C71.4119 293.655 71.3672 293.52 71.3672 293.23V292.268C71.3672 291.251 70.92 290.804 69.6344 290.804H66.2357ZM74.9416 285.437H83.7064V287.327H77.5129V288.557H83.5611V290.457H77.5129V291.821H83.8182V293.755H74.9416V285.437ZM84.8329 285.437H93.4301V287.327H87.4266V288.557H93.2847V290.457H87.4266V293.755H84.8329V285.437ZM97.0671 287.327V288.959H101.014C101.751 288.959 102.064 288.601 102.064 288.143V288.132C102.064 287.696 101.774 287.327 101.014 287.327H97.0671ZM97.0671 290.804V293.755H94.4623V285.437H101.17C103.943 285.437 104.781 286.399 104.781 287.595V287.729C104.781 288.914 103.786 289.384 103.238 289.552C104.088 289.775 104.815 290.401 104.815 291.463V292.682C104.815 293.353 104.904 293.565 104.971 293.699V293.755H102.322C102.243 293.655 102.199 293.52 102.199 293.23V292.268C102.199 291.251 101.751 290.804 100.466 290.804H97.0671ZM112.545 290.357L110.935 287.237L109.393 290.357H112.545ZM114.289 293.755L113.507 292.235H108.465L107.716 293.755H105.066L109.27 285.437H112.646L117.095 293.755H114.289ZM117.488 293.755V285.437H121.188L124.061 290.614L126.946 285.437H130.512V293.755H127.941V287.998L124.665 293.755H123.267L119.992 287.998V293.755H117.488ZM131.724 285.437H140.489V287.327H134.295V288.557H140.344V290.457H134.295V291.821H140.601V293.755H131.724V285.437ZM66.4318 301.65C66.8417 301.65 67.1957 301.721 67.4938 301.862C67.7994 301.996 68.0342 302.19 68.1982 302.444C68.3696 302.697 68.4553 303.01 68.4553 303.383C68.4553 303.86 68.3025 304.266 67.9969 304.601C67.6914 304.937 67.3112 305.239 66.8566 305.507L68.8354 307.419C69.0143 307.18 69.1633 306.915 69.2826 306.625C69.4018 306.327 69.5025 306.01 69.5844 305.675H70.7918C70.6801 306.137 70.5273 306.584 70.3335 307.016C70.1472 307.441 69.9049 307.825 69.6068 308.168L71.239 309.755H69.6962L68.8242 308.917C68.6454 309.058 68.4628 309.189 68.2764 309.308C68.0901 309.427 67.8889 309.528 67.6727 309.61C67.464 309.684 67.2367 309.744 66.9908 309.789C66.7448 309.841 66.4765 309.867 66.1858 309.867C65.6492 309.867 65.1834 309.781 64.7884 309.61C64.3934 309.431 64.0878 309.178 63.8716 308.85C63.663 308.514 63.5586 308.115 63.5586 307.653C63.5586 307.273 63.622 306.945 63.7487 306.67C63.8828 306.394 64.0729 306.152 64.3188 305.943C64.5722 305.727 64.8666 305.522 65.202 305.328C65.0381 305.142 64.8853 304.952 64.7437 304.758C64.6095 304.557 64.4977 304.348 64.4083 304.132C64.3263 303.916 64.2853 303.681 64.2853 303.427C64.2853 303.055 64.371 302.738 64.5424 302.477C64.7213 302.209 64.971 302.004 65.2915 301.862C65.6194 301.721 65.9995 301.65 66.4318 301.65ZM65.9063 306.055C65.6753 306.196 65.4778 306.342 65.3138 306.491C65.1573 306.632 65.0306 306.793 64.9337 306.971C64.8443 307.143 64.7996 307.348 64.7996 307.586C64.7996 307.966 64.93 308.272 65.1908 308.503C65.4592 308.727 65.8094 308.838 66.2417 308.838C66.6516 308.838 67.0057 308.775 67.3038 308.648C67.6094 308.522 67.8702 308.365 68.0864 308.179L65.9063 306.055ZM66.3982 302.6C66.1225 302.6 65.8914 302.671 65.7051 302.813C65.5188 302.954 65.4256 303.167 65.4256 303.45C65.4256 303.696 65.489 303.927 65.6157 304.143C65.7424 304.352 65.9212 304.579 66.1523 304.825C66.5548 304.594 66.8492 304.374 67.0355 304.165C67.2218 303.949 67.315 303.703 67.315 303.427C67.315 303.174 67.2293 302.973 67.0578 302.824C66.8864 302.675 66.6666 302.6 66.3982 302.6ZM75.2964 301.437H83.8935V303.327H77.8901V304.557H83.7482V306.457H77.8901V309.755H75.2964V301.437ZM84.9257 301.437H87.5306V307.687H93.3105V309.755H84.9257V301.437ZM99.39 301.292H99.8707C105.103 301.292 105.718 303.919 105.718 305.406V305.742C105.718 307.206 105.114 309.9 99.8707 309.9H99.39C94.1244 309.9 93.5319 307.206 93.5319 305.742V305.406C93.5319 303.919 94.1244 301.292 99.39 301.292ZM102.99 305.484C102.99 304.523 102.431 303.304 99.6248 303.304C96.774 303.304 96.2597 304.523 96.2597 305.484V305.619C96.2597 306.569 96.8187 307.877 99.6248 307.877C102.42 307.877 102.99 306.602 102.99 305.641V305.484ZM111.661 309.755H108.788L105.367 301.437H108.207L110.353 307.161L112.209 301.437H114.982L116.882 306.994L118.984 301.437H121.544L118.179 309.755H115.552L113.551 304.188L111.661 309.755Z" fill="#101010"/>
<path d="M207.453 307.348C202.335 307.348 198.185 303.198 198.185 298.08C198.185 292.962 202.335 288.812 207.453 288.812C212.571 288.812 216.721 292.962 216.721 298.08C216.721 303.198 212.571 307.348 207.453 307.348ZM207.453 290.666C203.358 290.666 200.039 293.985 200.039 298.08C200.039 302.175 203.358 305.494 207.453 305.494C211.548 305.494 214.867 302.175 214.867 298.08C214.867 293.985 211.548 290.666 207.453 290.666Z" fill="#1E1E1E"/>
<circle cx="207.453" cy="298.08" r="5.40618" transform="rotate(90 207.453 298.08)" fill="#1E1E1E"/>
<path d="M289.023 410.568H285.781L281.454 402.25H284.406L287.469 408.366L290.342 402.25H293.048L289.023 410.568ZM296.087 402.25V410.568H293.482V402.25H296.087ZM301.73 410.713C297.37 410.713 296.867 408.835 296.867 407.74V407.617H299.584C299.618 408.109 299.908 408.936 302.055 408.936H302.211C304.402 408.936 304.648 408.5 304.648 408.053C304.648 407.572 304.391 407.259 302.468 407.214L301.037 407.181C297.929 407.091 296.979 406.04 296.979 404.744V404.643C296.979 403.402 297.728 402.105 301.507 402.105H302.278C306.214 402.105 307.108 403.48 307.108 404.732V404.844H304.402C304.358 404.52 304.168 403.849 301.999 403.849H301.82C299.808 403.849 299.662 404.218 299.662 404.565C299.662 404.911 299.875 405.258 301.585 405.28L302.983 405.302C306.113 405.37 307.376 406.119 307.376 407.773V407.93C307.376 409.305 306.683 410.713 302.502 410.713H301.73ZM313.644 410.691H313.242C308.781 410.691 308.055 407.851 308.055 406.286V402.25H310.671V406.13C310.671 407.203 311.151 408.533 313.421 408.533C315.657 408.533 316.149 407.203 316.149 406.13V402.25H318.754V406.286C318.754 407.851 317.915 410.691 313.644 410.691ZM325.736 407.17L324.126 404.05L322.583 407.17H325.736ZM327.48 410.568L326.697 409.048H321.655L320.906 410.568H318.257L322.46 402.25H325.837L330.286 410.568H327.48ZM330.678 402.25H333.283V408.5H339.063V410.568H330.678V402.25ZM282.728 426.713C278.368 426.713 277.865 424.835 277.865 423.74V423.617H280.582C280.615 424.109 280.906 424.936 283.053 424.936H283.209C285.4 424.936 285.646 424.5 285.646 424.053C285.646 423.572 285.389 423.259 283.466 423.214L282.035 423.181C278.927 423.091 277.977 422.04 277.977 420.744V420.643C277.977 419.402 278.726 418.105 282.505 418.105H283.276C287.211 418.105 288.106 419.48 288.106 420.732V420.844H285.4C285.356 420.52 285.166 419.849 282.997 419.849H282.818C280.805 419.849 280.66 420.218 280.66 420.565C280.66 420.911 280.873 421.258 282.583 421.28L283.98 421.302C287.111 421.37 288.374 422.119 288.374 423.773V423.93C288.374 425.305 287.681 426.713 283.5 426.713H282.728ZM291.966 426.568V423.348L287.517 418.25H290.747L293.33 421.314L295.957 418.25H298.897L294.571 423.348V426.568H291.966ZM303.21 426.713C298.85 426.713 298.347 424.835 298.347 423.74V423.617H301.063C301.097 424.109 301.388 424.936 303.534 424.936H303.691C305.882 424.936 306.128 424.5 306.128 424.053C306.128 423.572 305.871 423.259 303.948 423.214L302.517 423.181C299.409 423.091 298.458 422.04 298.458 420.744V420.643C298.458 419.402 299.207 418.105 302.986 418.105H303.758C307.693 418.105 308.587 419.48 308.587 420.732V420.844H305.882C305.837 420.52 305.647 419.849 303.478 419.849H303.299C301.287 419.849 301.142 420.218 301.142 420.565C301.142 420.911 301.354 421.258 303.064 421.28L304.462 421.302C307.592 421.37 308.856 422.119 308.856 423.773V423.93C308.856 425.305 308.162 426.713 303.981 426.713H303.21ZM312.669 426.568V420.218H309.092V418.25H318.885V420.218H315.297V426.568H312.669ZM319.766 418.25H328.531V420.14H322.337V421.37H328.386V423.27H322.337V424.634H328.643V426.568H319.766V418.25ZM329.657 426.568V418.25H333.358L336.231 423.427L339.115 418.25H342.682V426.568H340.11V420.811L336.835 426.568H335.437L332.162 420.811V426.568H329.657Z" fill="#101010"/>
<path d="M264.958 415.568C264.958 414.431 264.036 413.509 262.898 413.509C261.761 413.509 260.839 414.431 260.839 415.568C260.839 416.706 261.761 417.628 262.898 417.628C264.036 417.628 264.958 416.706 264.958 415.568ZM262.898 415.568L262.898 415.182L225.055 415.182L225.055 415.568L225.055 415.954L262.898 415.954L262.898 415.568Z" fill="#1E1E1E"/>
<path d="M206.928 424.158C201.809 424.158 197.66 420.009 197.66 414.891C197.66 409.772 201.809 405.623 206.928 405.623C212.046 405.623 216.195 409.772 216.195 414.891C216.195 420.009 212.046 424.158 206.928 424.158ZM206.928 407.476C202.833 407.476 199.513 410.796 199.513 414.891C199.513 418.985 202.833 422.305 206.928 422.305C211.022 422.305 214.342 418.985 214.342 414.891C214.342 410.796 211.022 407.476 206.928 407.476Z" fill="#1E1E1E"/>
<circle cx="206.926" cy="414.892" r="5.40618" transform="rotate(90 206.926 414.892)" fill="#1E1E1E"/>
<path d="M285.42 170.515V172.147H289.367C290.105 172.147 290.418 171.789 290.418 171.331V171.32C290.418 170.884 290.127 170.515 289.367 170.515H285.42ZM285.42 173.992V176.943H282.816V168.625H289.523C292.296 168.625 293.134 169.587 293.134 170.783V170.917C293.134 172.102 292.139 172.572 291.592 172.74C292.441 172.963 293.168 173.589 293.168 174.651V175.87C293.168 176.541 293.257 176.753 293.324 176.887V176.943H290.675C290.597 176.842 290.552 176.708 290.552 176.418V175.456C290.552 174.439 290.105 173.992 288.819 173.992H285.42ZM298.229 172.158C296.977 172.158 296.418 172.538 296.228 173.176H300.253C300.096 172.538 299.492 172.158 298.24 172.158H298.229ZM302.735 174.83C302.735 175.646 302.198 177.111 298.609 177.111H297.972C294.763 177.111 293.735 175.613 293.735 174.036V173.79C293.735 172.248 294.652 170.761 297.905 170.761H298.587C302.108 170.761 302.768 172.538 302.768 174.003V174.417H296.183C296.329 175.121 296.932 175.59 298.307 175.59H298.319C299.973 175.59 300.241 174.975 300.275 174.819H302.735V174.83ZM306.991 177.111C303.481 177.111 303.123 175.747 303.123 174.975V174.908H305.694C305.705 175.121 305.772 175.725 307.237 175.725H307.259C308.646 175.725 308.813 175.445 308.813 175.154V175.132C308.813 174.83 308.668 174.629 307.494 174.607L306.421 174.584C303.805 174.517 303.179 173.589 303.179 172.706V172.639C303.179 171.722 303.682 170.761 306.98 170.761H307.427C310.479 170.761 311.194 171.711 311.194 172.65V172.728H308.657C308.634 172.505 308.5 172.114 307.17 172.114H307.159C305.962 172.114 305.728 172.27 305.728 172.561V172.583C305.728 172.851 305.94 173.041 306.991 173.064L308.064 173.086C310.848 173.142 311.418 173.779 311.418 174.975V175.043C311.418 176.149 310.77 177.111 307.449 177.111H306.991ZM316.32 172.158C315.068 172.158 314.509 172.538 314.318 173.176H318.343C318.187 172.538 317.583 172.158 316.331 172.158H316.32ZM320.825 174.83C320.825 175.646 320.288 177.111 316.7 177.111H316.063C312.854 177.111 311.825 175.613 311.825 174.036V173.79C311.825 172.248 312.742 170.761 315.995 170.761H316.677C320.199 170.761 320.859 172.538 320.859 174.003V174.417H314.274C314.419 175.121 315.023 175.59 316.398 175.59H316.409C318.064 175.59 318.332 174.975 318.366 174.819H320.825V174.83ZM326.859 174.271V174.081L324.478 174.45C323.84 174.551 323.572 174.674 323.572 175.009V175.02C323.572 175.344 323.818 175.702 324.668 175.702C326.009 175.702 326.859 174.987 326.859 174.271ZM326.926 176.116C326.647 176.429 325.92 177.055 324.142 177.055H323.997C321.985 177.055 321.202 176.116 321.202 175.087V175.009C321.202 173.902 321.929 173.377 323.729 173.209L326.479 172.952C326.758 172.93 326.859 172.829 326.859 172.639C326.859 172.415 326.747 172.147 325.294 172.147H325.238C323.751 172.147 323.684 172.617 323.662 172.818H321.347V172.795C321.347 172.002 321.582 170.761 324.936 170.761H325.551C329.039 170.761 329.263 171.834 329.263 172.706V175.009C329.263 175.188 329.33 175.311 329.576 175.311H329.9V176.943H327.876C327.407 176.943 327.016 176.675 326.926 176.116ZM332.918 173.835V176.943H330.425V170.928H332.895V171.991C333.119 171.655 333.823 170.794 335.333 170.794H335.456C337.2 170.794 337.904 171.935 337.904 173.477V173.824H335.5C335.5 173.041 335.165 172.382 334.226 172.382H334.215C333.376 172.382 332.918 173.053 332.918 173.835ZM343.097 177.111H342.482C339.05 177.111 338.29 175.356 338.29 174.014V173.79C338.29 172.449 339.039 170.761 342.471 170.761H343.108C346.865 170.761 347.334 172.572 347.334 173.388V173.422H344.774C344.718 173.187 344.494 172.337 342.784 172.337H342.75C341.297 172.337 340.839 173.064 340.839 173.824V173.902C340.839 174.707 341.308 175.512 342.75 175.512H342.784C344.461 175.512 344.729 174.651 344.774 174.405H347.334V174.428C347.334 175.266 346.943 177.111 343.097 177.111ZM348.002 176.943V168.625H350.495V171.935C350.763 171.677 351.669 170.794 353.458 170.794H353.536C355.615 170.794 356.465 171.979 356.465 173.142V176.943H353.95V173.969C353.95 173.053 353.435 172.471 352.34 172.471C351.222 172.471 350.495 173.12 350.495 174.103V176.943H348.002ZM363.792 168.838C364.202 168.838 364.556 168.909 364.854 169.05C365.16 169.184 365.395 169.378 365.558 169.632C365.73 169.885 365.816 170.198 365.816 170.571C365.816 171.048 365.663 171.454 365.357 171.789C365.052 172.125 364.672 172.427 364.217 172.695L366.196 174.607C366.375 174.368 366.524 174.103 366.643 173.813C366.762 173.515 366.863 173.198 366.945 172.863H368.152C368.04 173.325 367.888 173.772 367.694 174.204C367.507 174.629 367.265 175.013 366.967 175.356L368.599 176.943H367.057L366.185 176.105C366.006 176.246 365.823 176.377 365.637 176.496C365.45 176.615 365.249 176.716 365.033 176.798C364.824 176.872 364.597 176.932 364.351 176.977C364.105 177.029 363.837 177.055 363.546 177.055C363.01 177.055 362.544 176.969 362.149 176.798C361.754 176.619 361.448 176.365 361.232 176.038C361.023 175.702 360.919 175.303 360.919 174.841C360.919 174.461 360.982 174.133 361.109 173.858C361.243 173.582 361.433 173.34 361.679 173.131C361.933 172.915 362.227 172.71 362.562 172.516C362.398 172.33 362.246 172.14 362.104 171.946C361.97 171.745 361.858 171.536 361.769 171.32C361.687 171.104 361.646 170.869 361.646 170.615C361.646 170.243 361.731 169.926 361.903 169.665C362.082 169.397 362.331 169.192 362.652 169.05C362.98 168.909 363.36 168.838 363.792 168.838ZM363.267 173.243C363.036 173.384 362.838 173.53 362.674 173.679C362.518 173.82 362.391 173.981 362.294 174.159C362.205 174.331 362.16 174.536 362.16 174.774C362.16 175.154 362.29 175.46 362.551 175.691C362.819 175.915 363.17 176.026 363.602 176.026C364.012 176.026 364.366 175.963 364.664 175.836C364.97 175.71 365.231 175.553 365.447 175.367L363.267 173.243ZM363.759 169.788C363.483 169.788 363.252 169.859 363.065 170.001C362.879 170.142 362.786 170.355 362.786 170.638C362.786 170.884 362.849 171.115 362.976 171.331C363.103 171.54 363.282 171.767 363.513 172.013C363.915 171.782 364.209 171.562 364.396 171.353C364.582 171.137 364.675 170.891 364.675 170.615C364.675 170.362 364.59 170.161 364.418 170.012C364.247 169.863 364.027 169.788 363.759 169.788ZM280.862 193.088C276.502 193.088 275.998 191.21 275.998 190.115V189.992H278.715C278.749 190.484 279.039 191.311 281.186 191.311H281.342C283.534 191.311 283.779 190.875 283.779 190.428C283.779 189.947 283.522 189.634 281.599 189.589L280.168 189.556C277.06 189.466 276.11 188.415 276.11 187.119V187.018C276.11 185.777 276.859 184.48 280.638 184.48H281.409C285.345 184.48 286.239 185.855 286.239 187.107V187.219H283.534C283.489 186.895 283.299 186.224 281.13 186.224H280.951C278.939 186.224 278.793 186.593 278.793 186.94C278.793 187.286 279.006 187.633 280.716 187.655L282.114 187.677C285.244 187.745 286.507 188.494 286.507 190.148V190.305C286.507 191.68 285.814 193.088 281.633 193.088H280.862ZM290.321 192.943V186.593H286.744V184.625H296.537V186.593H292.948V192.943H290.321ZM300.023 186.515V188.147H303.969C304.707 188.147 305.02 187.789 305.02 187.331V187.32C305.02 186.884 304.729 186.515 303.969 186.515H300.023ZM300.023 189.992V192.943H297.418V184.625H304.126C306.898 184.625 307.737 185.587 307.737 186.783V186.917C307.737 188.102 306.742 188.572 306.194 188.74C307.044 188.963 307.77 189.589 307.77 190.651V191.87C307.77 192.541 307.86 192.753 307.927 192.887V192.943H305.277C305.199 192.842 305.154 192.708 305.154 192.418V191.456C305.154 190.439 304.707 189.992 303.421 189.992H300.023ZM314.218 193.066H313.815C309.355 193.066 308.628 190.226 308.628 188.661V184.625H311.244V188.505C311.244 189.578 311.725 190.908 313.994 190.908C316.23 190.908 316.722 189.578 316.722 188.505V184.625H319.327V188.661C319.327 190.226 318.488 193.066 314.218 193.066ZM326.123 193.088H325.664C320.846 193.088 320.097 190.405 320.097 188.918V188.594C320.097 187.085 320.756 184.48 325.664 184.48H326.123C330.952 184.48 331.679 186.783 331.69 187.756V187.879H328.929C328.862 187.655 328.537 186.492 325.888 186.492C323.395 186.492 322.825 187.61 322.825 188.65V188.784C322.825 189.757 323.484 191.065 325.91 191.065C328.605 191.065 328.884 189.779 328.94 189.589H331.701V189.712C331.701 190.763 330.885 193.088 326.123 193.088ZM335.608 192.943V186.593H332.03V184.625H341.823V186.593H338.235V192.943H335.608ZM348.193 193.066H347.791C343.33 193.066 342.604 190.226 342.604 188.661V184.625H345.22V188.505C345.22 189.578 345.7 190.908 347.97 190.908C350.206 190.908 350.698 189.578 350.698 188.505V184.625H353.303V188.661C353.303 190.226 352.464 193.066 348.193 193.066ZM357.013 186.515V188.147H360.959C361.697 188.147 362.01 187.789 362.01 187.331V187.32C362.01 186.884 361.719 186.515 360.959 186.515H357.013ZM357.013 189.992V192.943H354.408V184.625H361.116C363.888 184.625 364.727 185.587 364.727 186.783V186.917C364.727 188.102 363.732 188.572 363.184 188.74C364.034 188.963 364.76 189.589 364.76 190.651V191.87C364.76 192.541 364.85 192.753 364.917 192.887V192.943H362.267C362.189 192.842 362.144 192.708 362.144 192.418V191.456C362.144 190.439 361.697 189.992 360.411 189.992H357.013ZM365.719 184.625H374.483V186.515H368.29V187.745H374.338V189.645H368.29V191.009H374.595V192.943H365.719V184.625Z" fill="#101010"/>
<path d="M264.957 181.943C264.957 180.806 264.035 179.884 262.897 179.884C261.76 179.884 260.838 180.806 260.838 181.943C260.838 183.081 261.76 184.003 262.897 184.003C264.035 184.003 264.957 183.081 264.957 181.943ZM262.897 181.943L262.897 181.557L225.054 181.557L225.054 181.943L225.054 182.329L262.897 182.329L262.897 181.943Z" fill="#1E1E1E"/>
<path d="M206.928 190.535C201.809 190.535 197.66 186.386 197.66 181.267C197.66 176.149 201.809 172 206.928 172C212.046 172 216.195 176.149 216.195 181.267C216.195 186.386 212.046 190.535 206.928 190.535ZM206.928 173.853C202.833 173.853 199.513 177.173 199.513 181.267C199.513 185.362 202.833 188.682 206.928 188.682C211.022 188.682 214.342 185.362 214.342 181.267C214.342 177.173 211.022 173.853 206.928 173.853Z" fill="#1E1E1E"/>
<circle cx="206.926" cy="181.268" r="5.40618" transform="rotate(90 206.926 181.268)" fill="#1E1E1E"/>
<path d="M153.945 65.5178C153.945 64.3804 153.023 63.4583 151.885 63.4583C150.748 63.4583 149.826 64.3804 149.826 65.5178C149.826 66.6552 150.748 67.5773 151.885 67.5773C153.023 67.5773 153.945 66.6552 153.945 65.5178ZM189.729 65.5178L189.729 65.1317L151.885 65.1317L151.885 65.5178L151.885 65.904L189.729 65.904L189.729 65.5178Z" fill="#1E1E1E"/>
<path d="M67.641 57.7453H64.0076V60.5178H61.4027V52.2002H67.641C70.626 52.2002 71.5203 53.3852 71.5203 54.9056V55.0174C71.5203 56.5043 70.6148 57.7453 67.641 57.7453ZM64.0076 54.0895V55.8783H67.5963C68.4124 55.8783 68.8037 55.5652 68.8037 55.0063V54.9727C68.8037 54.4137 68.4236 54.0895 67.5963 54.0895H64.0076ZM74.9143 54.0895V55.7218H78.8607C79.5986 55.7218 79.9116 55.364 79.9116 54.9056V54.8945C79.9116 54.4584 79.6209 54.0895 78.8607 54.0895H74.9143ZM74.9143 57.5664V60.5178H72.3095V52.2002H79.0172C81.7898 52.2002 82.6283 53.1616 82.6283 54.3578V54.492C82.6283 55.677 81.6333 56.1466 81.0855 56.3143C81.9351 56.5379 82.6618 57.1639 82.6618 58.226V59.4446C82.6618 60.1154 82.7513 60.3278 82.8183 60.4619V60.5178H80.1687C80.0905 60.4172 80.0458 60.283 80.0458 59.9924V59.0309C80.0458 58.0136 79.5986 57.5664 78.3129 57.5664H74.9143ZM89.1429 52.0548H89.6236C94.8557 52.0548 95.4706 54.682 95.4706 56.1689V56.5043C95.4706 57.9689 94.8669 60.6632 89.6236 60.6632H89.1429C83.8773 60.6632 83.2847 57.9689 83.2847 56.5043V56.1689C83.2847 54.682 83.8773 52.0548 89.1429 52.0548ZM92.7427 56.2472C92.7427 55.2857 92.1837 54.0672 89.3776 54.0672C86.5268 54.0672 86.0126 55.2857 86.0126 56.2472V56.3814C86.0126 57.3316 86.5715 58.6396 89.3776 58.6396C92.1726 58.6396 92.7427 57.3652 92.7427 56.4037V56.2472ZM96.3392 60.5178V52.2002H103.461C105.842 52.2002 106.501 53.1169 106.501 54.1007V54.2572C106.501 55.3305 105.585 55.7665 105.182 55.8783C105.752 56.0236 106.971 56.5155 106.971 57.9689V58.1254C106.971 59.4446 106.222 60.5178 103.528 60.5178H96.3392ZM103.013 53.9554H98.944V55.3081H103.013C103.74 55.3081 103.919 54.9727 103.919 54.6373V54.615C103.919 54.2684 103.74 53.9554 103.013 53.9554ZM103.237 57.0745H98.944V58.7067H103.237C104.109 58.7067 104.266 58.226 104.266 57.8906V57.8459C104.266 57.4881 104.098 57.0745 103.237 57.0745ZM107.726 52.2002H110.331V58.4496H116.111V60.5178H107.726V52.2002ZM117.006 52.2002H125.771V54.0895H119.578V55.3193H125.626V57.2198H119.578V58.5837H125.883V60.5178H117.006V52.2002ZM126.898 60.5178V52.2002H130.598L133.471 57.3763L136.356 52.2002H139.922V60.5178H137.351V54.7603L134.075 60.5178H132.677L129.402 54.7603V60.5178H126.898ZM63.6845 68.2002H72.2817V70.0895H66.2782V71.3193H72.1363V73.2198H66.2782V76.5178H63.6845V68.2002ZM75.9187 70.0895V71.7218H79.8652C80.603 71.7218 80.916 71.364 80.916 70.9056V70.8945C80.916 70.4584 80.6254 70.0895 79.8652 70.0895H75.9187ZM75.9187 73.5664V76.5178H73.3139V68.2002H80.0217C82.7942 68.2002 83.6327 69.1616 83.6327 70.3578V70.492C83.6327 71.677 82.6377 72.1466 82.0899 72.3143C82.9396 72.5379 83.6662 73.1639 83.6662 74.226V75.4446C83.6662 76.1154 83.7557 76.3278 83.8227 76.4619V76.5178H81.1732C81.0949 76.4172 81.0502 76.283 81.0502 75.9924V75.0309C81.0502 74.0136 80.603 73.5664 79.3173 73.5664H75.9187ZM91.3968 73.1192L89.7869 70.0001L88.2441 73.1192H91.3968ZM93.1408 76.5178L92.3582 74.9974H87.3162L86.5672 76.5178H83.9176L88.1212 68.2002H91.4974L95.9469 76.5178H93.1408ZM96.3392 76.5178V68.2002H100.04L102.913 73.3763L105.797 68.2002H109.363V76.5178H106.792V70.7603L103.516 76.5178H102.119L98.8434 70.7603V76.5178H96.3392ZM113.181 68.2002V76.5178H110.576V68.2002H113.181ZM114.386 68.2002H117.293L122.603 73.4322V68.2002H125.174V76.5178H122.603L116.957 71.0063V76.5178H114.386V68.2002ZM131.829 76.6632H131.594C127.089 76.6632 126.049 74.1477 126.049 72.482V72.1689C126.049 70.5479 126.899 68.0548 131.684 68.0548H132.164C136.826 68.0548 137.62 70.0783 137.676 71.2075V71.2187H134.903C134.836 71.0286 134.546 70.0336 131.941 70.0336C129.403 70.0336 128.777 71.1292 128.777 72.2807V72.4037C128.777 73.4881 129.627 74.6396 131.918 74.6396C134.4 74.6396 135.138 73.6782 135.138 73.4546V73.4322H131.874V71.8559H137.732V76.5178H136.167C136.133 76.216 135.977 75.5676 135.831 75.221C135.485 75.6458 134.4 76.6632 131.829 76.6632Z" fill="#101010"/>
<path d="M207.453 74.1089C202.335 74.1089 198.185 69.9596 198.185 64.8412C198.185 59.7228 202.335 55.5735 207.453 55.5735C212.571 55.5735 216.721 59.7228 216.721 64.8412C216.721 69.9596 212.571 74.1089 207.453 74.1089ZM207.453 57.427C203.358 57.427 200.039 60.7465 200.039 64.8412C200.039 68.936 203.358 72.2554 207.453 72.2554C211.548 72.2554 214.867 68.936 214.867 64.8412C214.867 60.7465 211.548 57.427 207.453 57.427Z" fill="#1E1E1E"/>
<circle cx="207.453" cy="64.8415" r="5.40618" transform="rotate(90 207.453 64.8415)" fill="#1E1E1E"/>
</svg>
