<svg width="48" height="50" viewBox="0 0 48 50" fill="none" xmlns="http://www.w3.org/2000/svg">
<path fill-rule="evenodd" clip-rule="evenodd" d="M16.3198 0.55957H31.6796C36.4491 0.55957 40.3197 4.43007 40.3197 9.19963C40.3197 12.542 38.4189 15.4428 35.64 16.8795C38.4189 18.3163 40.3197 21.2171 40.3197 24.5595C40.3197 29.3291 36.4491 33.1996 31.6796 33.1996C28.9665 33.1996 26.5443 31.9472 24.9599 29.9893V39.9195C24.9599 44.6891 21.0894 48.5596 16.3198 48.5596C11.5502 48.5596 7.67969 44.6891 7.67969 39.9195C7.67969 36.5771 9.58046 33.6762 12.3594 32.2395C9.58046 30.8028 7.67969 27.9019 7.67969 24.5595C7.67969 21.2171 9.58044 18.3163 12.3594 16.8795C9.58045 15.4428 7.67969 12.542 7.67969 9.19963C7.67969 4.43007 11.5502 0.55957 16.3198 0.55957ZM9.59969 9.19963C9.59969 5.49047 12.6106 2.47957 16.3198 2.47957H23.0395V15.9195H16.3198L16.299 15.9195C12.5993 15.9082 9.59969 12.9018 9.59969 9.19963ZM23.0399 24.4681C23.0396 24.4986 23.0395 24.529 23.0395 24.5595C23.0395 24.59 23.0396 24.6205 23.0399 24.6509V31.2794H16.3198C12.6106 31.2796 9.59969 28.2687 9.59969 24.5595C9.59969 20.8572 12.5994 17.8506 16.2992 17.8395L16.3198 17.8395H23.0395L23.0399 24.4681ZM24.9599 24.64V24.479C25.003 20.816 27.9823 17.8543 31.652 17.8395H31.6796C31.6865 17.8395 31.6933 17.8395 31.7002 17.8395C35.3999 17.8506 38.3997 20.8572 38.3997 24.5595C38.3997 28.2687 35.3888 31.2796 31.6796 31.2796C27.9972 31.2796 25.0031 28.3121 24.9599 24.64ZM26.2502 17.8395C25.7762 18.223 25.3435 18.6557 24.9599 19.1297V17.8395H26.2502ZM31.7004 15.9195C31.6935 15.9195 31.6865 15.9195 31.6796 15.9195C31.6691 15.9195 31.6586 15.9195 31.6481 15.9195H24.9599V2.47957H31.6796C35.3888 2.47957 38.3997 5.49047 38.3997 9.19963C38.3997 12.9018 35.4001 15.9082 31.7004 15.9195ZM16.3198 33.1994C12.6106 33.1994 9.59969 36.2104 9.59969 39.9195C9.59969 43.6287 12.6106 46.6396 16.3198 46.6396C20.029 46.6396 23.0399 43.6287 23.0399 39.9195V33.1994H16.3198Z" fill="#323232" stroke="#1C1C1C" stroke-width="1.12"/>
</svg>
