<svg width="729" height="140" viewBox="0 0 729 140" fill="none" xmlns="http://www.w3.org/2000/svg">
<path d="M24.8718 76V37.048H1.75978V22.432H68.4318V37.048H45.3198V76H24.8718ZM72.7304 76V22.432H92.3144V44.032C93.9704 42.376 100.162 36.4 112.186 36.4H112.618C127.09 36.4 131.626 44.896 131.626 51.088V76H111.97V57.496C111.97 52.312 109.306 48.568 102.61 48.568C96.0584 48.568 92.3144 52.528 92.3144 58V76H72.7304ZM171.487 59.368V57.712L158.527 60.016C155.215 60.592 153.775 61.384 153.775 63.328V63.4C153.775 65.2 155.143 67.36 159.895 67.36C167.095 67.36 171.487 63.472 171.487 59.368ZM171.847 70.816C169.975 72.76 164.935 76.72 153.703 76.72H152.911C139.951 76.72 134.983 70.6 134.983 64.264V63.4C134.983 56.92 139.159 53.176 150.679 52.168L169.327 50.512C170.983 50.368 171.487 49.72 171.487 48.64C171.487 47.272 170.695 45.688 163.063 45.688H162.775C154.567 45.688 154.207 48.424 154.063 49.648H135.919V49.216C135.919 44.032 137.503 36.256 160.759 36.256H164.791C188.983 36.256 190.639 43.456 190.639 48.712V63.04C190.639 64.048 190.999 64.696 192.295 64.696H194.383V76H178.111C174.727 76 172.423 74.2 171.847 70.816ZM197.324 76V37.264H216.764V44.104C218.636 42.304 224.684 36.4 236.78 36.4H237.212C251.684 36.4 256.22 44.896 256.22 51.088V76H236.564V57.496C236.564 52.312 233.9 48.568 227.204 48.568C220.652 48.568 216.908 52.528 216.908 58V76H197.324ZM281.033 76H261.449V22.432H281.033V52.384L294.281 37.264H315.377L299.609 54.4L317.681 76H295.433L281.033 58.576V76ZM365.957 76V55.84L336.653 22.432H361.133L376.757 40.936L392.669 22.432H415.061L386.405 55.984V76H365.957ZM430.36 77.08C405.52 77.08 400.984 65.344 400.984 56.992V55.84C400.984 47.632 405.448 36.184 430.288 36.184H435.76C461.536 36.184 464.992 47.704 464.992 55.768V57.064C464.992 65.272 461.752 77.08 435.688 77.08H430.36ZM433.024 47.128C423.376 47.128 420.856 51.952 420.856 56.2V56.488C420.856 60.664 423.304 66.064 433.024 66.064H433.096C442.744 66.064 445.192 60.592 445.192 56.488V56.2C445.192 52.024 442.672 47.128 433.096 47.128H433.024ZM526.905 37.264V76H507.465V69.088C505.593 70.96 499.689 76.864 487.809 76.864H487.305C472.905 76.864 468.729 68.008 468.729 61.744V37.264H488.385V55.768C488.385 60.736 490.833 64.696 497.313 64.696C503.793 64.696 507.393 60.52 507.393 55.264V37.264H526.905ZM576.173 56.272C576.173 52.336 576.533 48.496 577.253 44.752C578.021 41.008 579.197 37.432 580.781 34.024C582.365 30.616 584.357 27.472 586.757 24.592H595.541C593.381 27.568 591.557 30.784 590.069 34.24C588.581 37.696 587.453 41.272 586.685 44.968C585.917 48.664 585.533 52.408 585.533 56.2C585.533 59.896 585.917 63.592 586.685 67.288C587.453 70.936 588.557 74.44 589.997 77.8C591.485 81.208 593.309 84.4 595.469 87.376H586.757C584.357 84.544 582.365 81.448 580.781 78.088C579.197 74.776 578.021 71.272 577.253 67.576C576.533 63.88 576.173 60.112 576.173 56.272ZM599.347 57.712L614.755 24.304H619.795L637.219 57.712H628.795L617.491 35.104L607.627 57.712H599.347ZM661.215 61.96V76H640.911V61.96H661.215ZM664.879 57.712L680.287 24.304H685.327L702.751 57.712H694.327L683.023 35.104L673.159 57.712H664.879ZM725.954 56.272C725.954 60.112 725.57 63.88 724.802 67.576C724.082 71.272 722.93 74.776 721.346 78.088C719.81 81.448 717.818 84.544 715.37 87.376H706.658C708.818 84.4 710.618 81.208 712.058 77.8C713.546 74.44 714.674 70.936 715.442 67.288C716.21 63.592 716.594 59.896 716.594 56.2C716.594 52.408 716.21 48.664 715.442 44.968C714.674 41.272 713.546 37.696 712.058 34.24C710.618 30.784 708.794 27.568 706.586 24.592H715.37C717.818 27.472 719.81 30.616 721.346 34.024C722.93 37.432 724.082 41.008 724.802 44.752C725.57 48.496 725.954 52.336 725.954 56.272Z" fill="#1C1C1C"/>
<path d="M197.041 123.436H201.613C202.429 123.436 203.167 123.568 203.827 123.832C204.499 124.096 205.069 124.492 205.537 125.02C206.017 125.536 206.383 126.19 206.635 126.982C206.899 127.762 207.031 128.674 207.031 129.718C207.031 130.762 206.899 131.68 206.635 132.472C206.383 133.252 206.017 133.906 205.537 134.434C205.069 134.95 204.499 135.34 203.827 135.604C203.167 135.868 202.429 136 201.613 136H197.041V123.436ZM201.613 133.894C202.501 133.894 203.203 133.636 203.719 133.12C204.247 132.592 204.511 131.788 204.511 130.708V128.728C204.511 127.648 204.247 126.85 203.719 126.334C203.203 125.806 202.501 125.542 201.613 125.542H199.417V133.894H201.613ZM213.106 136.216C212.41 136.216 211.786 136.102 211.234 135.874C210.694 135.634 210.232 135.304 209.848 134.884C209.476 134.452 209.188 133.936 208.984 133.336C208.78 132.724 208.678 132.04 208.678 131.284C208.678 130.54 208.774 129.868 208.966 129.268C209.17 128.668 209.458 128.158 209.83 127.738C210.202 127.306 210.658 126.976 211.198 126.748C211.738 126.508 212.35 126.388 213.034 126.388C213.766 126.388 214.402 126.514 214.942 126.766C215.482 127.018 215.926 127.36 216.274 127.792C216.622 128.224 216.88 128.728 217.048 129.304C217.228 129.868 217.318 130.474 217.318 131.122V131.878H211.072V132.112C211.072 132.796 211.264 133.348 211.648 133.768C212.032 134.176 212.602 134.38 213.358 134.38C213.934 134.38 214.402 134.26 214.762 134.02C215.134 133.78 215.464 133.474 215.752 133.102L216.994 134.488C216.61 135.028 216.082 135.454 215.41 135.766C214.75 136.066 213.982 136.216 213.106 136.216ZM213.07 128.116C212.458 128.116 211.972 128.32 211.612 128.728C211.252 129.136 211.072 129.664 211.072 130.312V130.456H214.924V130.294C214.924 129.646 214.762 129.124 214.438 128.728C214.126 128.32 213.67 128.116 213.07 128.116ZM222.423 136.216C221.523 136.216 220.767 136.066 220.155 135.766C219.543 135.454 219.003 135.028 218.535 134.488L219.939 133.12C220.287 133.516 220.665 133.828 221.073 134.056C221.493 134.284 221.973 134.398 222.513 134.398C223.065 134.398 223.461 134.302 223.701 134.11C223.953 133.918 224.079 133.654 224.079 133.318C224.079 133.042 223.989 132.826 223.809 132.67C223.641 132.502 223.347 132.388 222.927 132.328L221.991 132.202C220.971 132.07 220.191 131.782 219.651 131.338C219.123 130.882 218.859 130.222 218.859 129.358C218.859 128.902 218.943 128.494 219.111 128.134C219.279 127.762 219.519 127.45 219.831 127.198C220.143 126.934 220.515 126.736 220.947 126.604C221.391 126.46 221.883 126.388 222.423 126.388C222.879 126.388 223.281 126.424 223.629 126.496C223.989 126.556 224.313 126.652 224.601 126.784C224.889 126.904 225.153 127.06 225.393 127.252C225.633 127.432 225.867 127.636 226.095 127.864L224.745 129.214C224.469 128.926 224.139 128.686 223.755 128.494C223.371 128.302 222.951 128.206 222.495 128.206C221.991 128.206 221.625 128.296 221.397 128.476C221.181 128.656 221.073 128.89 221.073 129.178C221.073 129.49 221.163 129.73 221.343 129.898C221.535 130.054 221.853 130.168 222.297 130.24L223.251 130.366C225.279 130.654 226.293 131.578 226.293 133.138C226.293 133.594 226.197 134.014 226.005 134.398C225.825 134.77 225.567 135.094 225.231 135.37C224.895 135.634 224.487 135.844 224.007 136C223.539 136.144 223.011 136.216 222.423 136.216ZM229.479 125.236C228.999 125.236 228.651 125.128 228.435 124.912C228.231 124.696 228.129 124.42 228.129 124.084V123.724C228.129 123.388 228.231 123.112 228.435 122.896C228.651 122.68 228.999 122.572 229.479 122.572C229.947 122.572 230.289 122.68 230.505 122.896C230.721 123.112 230.829 123.388 230.829 123.724V124.084C230.829 124.42 230.721 124.696 230.505 124.912C230.289 125.128 229.947 125.236 229.479 125.236ZM228.327 126.604H230.631V136H228.327V126.604ZM241.78 136.792C241.78 137.284 241.69 137.716 241.51 138.088C241.342 138.472 241.06 138.79 240.664 139.042C240.268 139.294 239.758 139.486 239.134 139.618C238.51 139.75 237.748 139.816 236.848 139.816C236.056 139.816 235.384 139.762 234.832 139.654C234.28 139.558 233.824 139.414 233.464 139.222C233.116 139.042 232.864 138.814 232.708 138.538C232.552 138.262 232.474 137.95 232.474 137.602C232.474 137.074 232.618 136.66 232.906 136.36C233.206 136.072 233.62 135.886 234.148 135.802V135.604C233.764 135.508 233.464 135.322 233.248 135.046C233.044 134.758 232.942 134.422 232.942 134.038C232.942 133.798 232.99 133.588 233.086 133.408C233.182 133.216 233.308 133.054 233.464 132.922C233.632 132.79 233.818 132.682 234.022 132.598C234.226 132.502 234.442 132.43 234.67 132.382V132.31C234.094 132.046 233.662 131.68 233.374 131.212C233.098 130.744 232.96 130.198 232.96 129.574C232.96 128.614 233.29 127.846 233.95 127.27C234.61 126.682 235.576 126.388 236.848 126.388C237.136 126.388 237.418 126.406 237.694 126.442C237.982 126.478 238.246 126.538 238.486 126.622V126.316C238.486 125.404 238.93 124.948 239.818 124.948H241.276V126.712H239.278V126.964C239.77 127.24 240.136 127.6 240.376 128.044C240.616 128.488 240.736 128.998 240.736 129.574C240.736 130.522 240.406 131.284 239.746 131.86C239.098 132.436 238.132 132.724 236.848 132.724C236.296 132.724 235.816 132.67 235.408 132.562C235.228 132.646 235.072 132.76 234.94 132.904C234.808 133.036 234.742 133.204 234.742 133.408C234.742 133.876 235.15 134.11 235.966 134.11H238.486C239.638 134.11 240.472 134.35 240.988 134.83C241.516 135.298 241.78 135.952 241.78 136.792ZM239.62 137.062C239.62 136.762 239.5 136.528 239.26 136.36C239.02 136.192 238.606 136.108 238.018 136.108H234.814C234.49 136.348 234.328 136.672 234.328 137.08C234.328 137.44 234.478 137.722 234.778 137.926C235.078 138.13 235.588 138.232 236.308 138.232H237.46C238.216 138.232 238.762 138.136 239.098 137.944C239.446 137.752 239.62 137.458 239.62 137.062ZM236.848 131.158C237.976 131.158 238.54 130.678 238.54 129.718V129.412C238.54 128.452 237.976 127.972 236.848 127.972C235.72 127.972 235.156 128.452 235.156 129.412V129.718C235.156 130.678 235.72 131.158 236.848 131.158ZM243.11 136V126.604H245.414V128.17H245.504C245.696 127.666 245.996 127.246 246.404 126.91C246.824 126.562 247.4 126.388 248.132 126.388C249.104 126.388 249.848 126.706 250.364 127.342C250.88 127.978 251.138 128.884 251.138 130.06V136H248.834V130.294C248.834 129.622 248.714 129.118 248.474 128.782C248.234 128.446 247.838 128.278 247.286 128.278C247.046 128.278 246.812 128.314 246.584 128.386C246.368 128.446 246.17 128.542 245.99 128.674C245.822 128.794 245.684 128.95 245.576 129.142C245.468 129.322 245.414 129.538 245.414 129.79V136H243.11ZM258.09 123.436H262.662C263.478 123.436 264.216 123.568 264.876 123.832C265.548 124.096 266.118 124.492 266.586 125.02C267.066 125.536 267.432 126.19 267.684 126.982C267.948 127.762 268.08 128.674 268.08 129.718C268.08 130.762 267.948 131.68 267.684 132.472C267.432 133.252 267.066 133.906 266.586 134.434C266.118 134.95 265.548 135.34 264.876 135.604C264.216 135.868 263.478 136 262.662 136H258.09V123.436ZM262.662 133.894C263.55 133.894 264.252 133.636 264.768 133.12C265.296 132.592 265.56 131.788 265.56 130.708V128.728C265.56 127.648 265.296 126.85 264.768 126.334C264.252 125.806 263.55 125.542 262.662 125.542H260.466V133.894H262.662ZM274.082 136.216C273.41 136.216 272.804 136.102 272.264 135.874C271.736 135.646 271.28 135.316 270.896 134.884C270.524 134.452 270.236 133.936 270.032 133.336C269.828 132.724 269.726 132.04 269.726 131.284C269.726 130.528 269.828 129.85 270.032 129.25C270.236 128.65 270.524 128.14 270.896 127.72C271.28 127.288 271.736 126.958 272.264 126.73C272.804 126.502 273.41 126.388 274.082 126.388C274.754 126.388 275.36 126.502 275.9 126.73C276.44 126.958 276.896 127.288 277.268 127.72C277.652 128.14 277.946 128.65 278.15 129.25C278.354 129.85 278.456 130.528 278.456 131.284C278.456 132.04 278.354 132.724 278.15 133.336C277.946 133.936 277.652 134.452 277.268 134.884C276.896 135.316 276.44 135.646 275.9 135.874C275.36 136.102 274.754 136.216 274.082 136.216ZM274.082 134.362C274.694 134.362 275.174 134.176 275.522 133.804C275.87 133.432 276.044 132.886 276.044 132.166V130.42C276.044 129.712 275.87 129.172 275.522 128.8C275.174 128.428 274.694 128.242 274.082 128.242C273.482 128.242 273.008 128.428 272.66 128.8C272.312 129.172 272.138 129.712 272.138 130.42V132.166C272.138 132.886 272.312 133.432 272.66 133.804C273.008 134.176 273.482 134.362 274.082 134.362ZM280.499 136V126.604H282.803V128.17H282.893C283.085 127.666 283.385 127.246 283.793 126.91C284.213 126.562 284.789 126.388 285.521 126.388C286.493 126.388 287.237 126.706 287.753 127.342C288.269 127.978 288.527 128.884 288.527 130.06V136H286.223V130.294C286.223 129.622 286.103 129.118 285.863 128.782C285.623 128.446 285.227 128.278 284.675 128.278C284.435 128.278 284.201 128.314 283.973 128.386C283.757 128.446 283.559 128.542 283.379 128.674C283.211 128.794 283.073 128.95 282.965 129.142C282.857 129.322 282.803 129.538 282.803 129.79V136H280.499ZM294.879 136.216C294.183 136.216 293.559 136.102 293.007 135.874C292.467 135.634 292.005 135.304 291.621 134.884C291.249 134.452 290.961 133.936 290.757 133.336C290.553 132.724 290.451 132.04 290.451 131.284C290.451 130.54 290.547 129.868 290.739 129.268C290.943 128.668 291.231 128.158 291.603 127.738C291.975 127.306 292.431 126.976 292.971 126.748C293.511 126.508 294.123 126.388 294.807 126.388C295.539 126.388 296.175 126.514 296.715 126.766C297.255 127.018 297.699 127.36 298.047 127.792C298.395 128.224 298.653 128.728 298.821 129.304C299.001 129.868 299.091 130.474 299.091 131.122V131.878H292.845V132.112C292.845 132.796 293.037 133.348 293.421 133.768C293.805 134.176 294.375 134.38 295.131 134.38C295.707 134.38 296.175 134.26 296.535 134.02C296.907 133.78 297.237 133.474 297.525 133.102L298.767 134.488C298.383 135.028 297.855 135.454 297.183 135.766C296.523 136.066 295.755 136.216 294.879 136.216ZM294.843 128.116C294.231 128.116 293.745 128.32 293.385 128.728C293.025 129.136 292.845 129.664 292.845 130.312V130.456H296.697V130.294C296.697 129.646 296.535 129.124 296.211 128.728C295.899 128.32 295.443 128.116 294.843 128.116ZM313.616 139.204H311.87C311.042 139.204 310.43 139 310.034 138.592C309.65 138.196 309.458 137.632 309.458 136.9V136.144C308.09 135.94 306.998 135.292 306.182 134.2C305.378 133.108 304.976 131.614 304.976 129.718C304.976 128.662 305.108 127.732 305.372 126.928C305.636 126.112 306.002 125.428 306.47 124.876C306.95 124.324 307.526 123.91 308.198 123.634C308.87 123.358 309.62 123.22 310.448 123.22C311.276 123.22 312.026 123.358 312.698 123.634C313.37 123.91 313.946 124.324 314.426 124.876C314.906 125.428 315.272 126.112 315.524 126.928C315.788 127.732 315.92 128.662 315.92 129.718C315.92 131.578 315.542 133.042 314.786 134.11C314.03 135.178 312.998 135.838 311.69 136.09V137.26H313.616V139.204ZM310.448 134.11C311.348 134.11 312.062 133.81 312.59 133.21C313.13 132.61 313.4 131.77 313.4 130.69V128.746C313.4 127.666 313.13 126.826 312.59 126.226C312.062 125.626 311.348 125.326 310.448 125.326C309.548 125.326 308.828 125.626 308.288 126.226C307.76 126.826 307.496 127.666 307.496 128.746V130.69C307.496 131.77 307.76 132.61 308.288 133.21C308.828 133.81 309.548 134.11 310.448 134.11ZM323.802 134.434H323.712C323.628 134.674 323.514 134.902 323.37 135.118C323.238 135.322 323.064 135.508 322.848 135.676C322.644 135.844 322.392 135.976 322.092 136.072C321.804 136.168 321.468 136.216 321.084 136.216C320.112 136.216 319.368 135.898 318.852 135.262C318.336 134.626 318.078 133.72 318.078 132.544V126.604H320.382V132.31C320.382 132.958 320.508 133.456 320.76 133.804C321.012 134.14 321.414 134.308 321.966 134.308C322.194 134.308 322.416 134.278 322.632 134.218C322.86 134.158 323.058 134.068 323.226 133.948C323.394 133.816 323.532 133.66 323.64 133.48C323.748 133.288 323.802 133.066 323.802 132.814V126.604H326.106V136H323.802V134.434ZM329.921 125.236C329.441 125.236 329.093 125.128 328.877 124.912C328.673 124.696 328.571 124.42 328.571 124.084V123.724C328.571 123.388 328.673 123.112 328.877 122.896C329.093 122.68 329.441 122.572 329.921 122.572C330.389 122.572 330.731 122.68 330.947 122.896C331.163 123.112 331.271 123.388 331.271 123.724V124.084C331.271 124.42 331.163 124.696 330.947 124.912C330.731 125.128 330.389 125.236 329.921 125.236ZM328.769 126.604H331.073V136H328.769V126.604ZM337.541 136.216C336.845 136.216 336.221 136.102 335.669 135.874C335.129 135.634 334.667 135.304 334.283 134.884C333.911 134.452 333.623 133.936 333.419 133.336C333.215 132.724 333.113 132.04 333.113 131.284C333.113 130.54 333.209 129.868 333.401 129.268C333.605 128.668 333.893 128.158 334.265 127.738C334.637 127.306 335.093 126.976 335.633 126.748C336.173 126.508 336.785 126.388 337.469 126.388C338.201 126.388 338.837 126.514 339.377 126.766C339.917 127.018 340.361 127.36 340.709 127.792C341.057 128.224 341.315 128.728 341.483 129.304C341.663 129.868 341.753 130.474 341.753 131.122V131.878H335.507V132.112C335.507 132.796 335.699 133.348 336.083 133.768C336.467 134.176 337.037 134.38 337.793 134.38C338.369 134.38 338.837 134.26 339.197 134.02C339.569 133.78 339.899 133.474 340.187 133.102L341.429 134.488C341.045 135.028 340.517 135.454 339.845 135.766C339.185 136.066 338.417 136.216 337.541 136.216ZM337.505 128.116C336.893 128.116 336.407 128.32 336.047 128.728C335.687 129.136 335.507 129.664 335.507 130.312V130.456H339.359V130.294C339.359 129.646 339.197 129.124 338.873 128.728C338.561 128.32 338.105 128.116 337.505 128.116ZM346.714 136C345.922 136 345.316 135.796 344.896 135.388C344.488 134.968 344.284 134.374 344.284 133.606V128.44H342.898V126.604H343.618C343.966 126.604 344.2 126.526 344.32 126.37C344.452 126.202 344.518 125.956 344.518 125.632V124.03H346.588V126.604H348.514V128.44H346.588V134.164H348.37V136H346.714ZM352.817 136C352.025 136 351.443 135.802 351.071 135.406C350.699 135.01 350.513 134.452 350.513 133.732V122.68H352.817V134.164H354.059V136H352.817ZM361.441 126.604H363.601L359.821 137.674C359.701 138.01 359.563 138.298 359.407 138.538C359.263 138.79 359.089 138.994 358.885 139.15C358.681 139.306 358.435 139.42 358.147 139.492C357.859 139.564 357.523 139.6 357.139 139.6H355.753V137.764H357.445L357.877 136.45L354.511 126.604H356.797L358.435 131.572L359.047 133.948H359.155L359.803 131.572L361.441 126.604ZM365.609 133.228C366.101 133.228 366.461 133.354 366.689 133.606C366.929 133.858 367.049 134.176 367.049 134.56V134.884C367.049 135.208 367.001 135.544 366.905 135.892C366.821 136.24 366.695 136.576 366.527 136.9C366.371 137.224 366.179 137.53 365.951 137.818C365.735 138.106 365.489 138.358 365.213 138.574H363.575C363.983 138.178 364.325 137.788 364.601 137.404C364.877 137.032 365.087 136.618 365.231 136.162C364.859 136.102 364.589 135.958 364.421 135.73C364.253 135.49 364.169 135.208 364.169 134.884V134.56C364.169 134.176 364.283 133.858 364.511 133.606C364.739 133.354 365.105 133.228 365.609 133.228ZM377.924 136.216C376.844 136.216 375.926 136.024 375.17 135.64C374.426 135.256 373.784 134.752 373.244 134.128L374.846 132.58C375.278 133.084 375.758 133.468 376.286 133.732C376.826 133.996 377.42 134.128 378.068 134.128C378.8 134.128 379.352 133.972 379.724 133.66C380.096 133.336 380.282 132.904 380.282 132.364C380.282 131.944 380.162 131.602 379.922 131.338C379.682 131.074 379.232 130.882 378.572 130.762L377.384 130.582C374.876 130.186 373.622 128.968 373.622 126.928C373.622 126.364 373.724 125.854 373.928 125.398C374.144 124.942 374.45 124.552 374.846 124.228C375.242 123.904 375.716 123.658 376.268 123.49C376.832 123.31 377.468 123.22 378.176 123.22C379.124 123.22 379.952 123.376 380.66 123.688C381.368 124 381.974 124.462 382.478 125.074L380.858 126.604C380.546 126.22 380.168 125.908 379.724 125.668C379.28 125.428 378.722 125.308 378.05 125.308C377.366 125.308 376.85 125.44 376.502 125.704C376.166 125.956 375.998 126.316 375.998 126.784C375.998 127.264 376.136 127.618 376.412 127.846C376.688 128.074 377.132 128.242 377.744 128.35L378.914 128.566C380.186 128.794 381.122 129.202 381.722 129.79C382.334 130.366 382.64 131.176 382.64 132.22C382.64 132.82 382.532 133.366 382.316 133.858C382.112 134.338 381.806 134.758 381.398 135.118C381.002 135.466 380.51 135.736 379.922 135.928C379.346 136.12 378.68 136.216 377.924 136.216ZM388.604 136.216C387.932 136.216 387.326 136.102 386.786 135.874C386.258 135.646 385.802 135.316 385.418 134.884C385.046 134.452 384.758 133.936 384.554 133.336C384.35 132.724 384.248 132.04 384.248 131.284C384.248 130.528 384.35 129.85 384.554 129.25C384.758 128.65 385.046 128.14 385.418 127.72C385.802 127.288 386.258 126.958 386.786 126.73C387.326 126.502 387.932 126.388 388.604 126.388C389.276 126.388 389.882 126.502 390.422 126.73C390.962 126.958 391.418 127.288 391.79 127.72C392.174 128.14 392.468 128.65 392.672 129.25C392.876 129.85 392.978 130.528 392.978 131.284C392.978 132.04 392.876 132.724 392.672 133.336C392.468 133.936 392.174 134.452 391.79 134.884C391.418 135.316 390.962 135.646 390.422 135.874C389.882 136.102 389.276 136.216 388.604 136.216ZM388.604 134.362C389.216 134.362 389.696 134.176 390.044 133.804C390.392 133.432 390.566 132.886 390.566 132.166V130.42C390.566 129.712 390.392 129.172 390.044 128.8C389.696 128.428 389.216 128.242 388.604 128.242C388.004 128.242 387.53 128.428 387.182 128.8C386.834 129.172 386.66 129.712 386.66 130.42V132.166C386.66 132.886 386.834 133.432 387.182 133.804C387.53 134.176 388.004 134.362 388.604 134.362ZM398.896 136V134.092H400.552V125.344H398.896V123.436H404.602V125.344H402.928V134.092H404.602V136H398.896ZM409.82 136C409.028 136 408.422 135.796 408.002 135.388C407.594 134.968 407.39 134.374 407.39 133.606V128.44H406.004V126.604H406.724C407.072 126.604 407.306 126.526 407.426 126.37C407.558 126.202 407.624 125.956 407.624 125.632V124.03H409.694V126.604H411.62V128.44H409.694V134.164H411.476V136H409.82ZM419.924 136L417.008 123.436H419.384L420.626 129.466L421.4 133.318H421.454L422.354 129.466L423.794 123.436H426.422L427.862 129.466L428.744 133.318H428.798L429.59 129.466L430.868 123.436H433.136L430.13 136H427.448L425.846 129.358L425.072 126.046H425.036L424.226 129.358L422.624 136H419.924ZM438.28 136.216C437.608 136.216 437.002 136.102 436.462 135.874C435.934 135.646 435.478 135.316 435.094 134.884C434.722 134.452 434.434 133.936 434.23 133.336C434.026 132.724 433.924 132.04 433.924 131.284C433.924 130.528 434.026 129.85 434.23 129.25C434.434 128.65 434.722 128.14 435.094 127.72C435.478 127.288 435.934 126.958 436.462 126.73C437.002 126.502 437.608 126.388 438.28 126.388C438.952 126.388 439.558 126.502 440.098 126.73C440.638 126.958 441.094 127.288 441.466 127.72C441.85 128.14 442.144 128.65 442.348 129.25C442.552 129.85 442.654 130.528 442.654 131.284C442.654 132.04 442.552 132.724 442.348 133.336C442.144 133.936 441.85 134.452 441.466 134.884C441.094 135.316 440.638 135.646 440.098 135.874C439.558 136.102 438.952 136.216 438.28 136.216ZM438.28 134.362C438.892 134.362 439.372 134.176 439.72 133.804C440.068 133.432 440.242 132.886 440.242 132.166V130.42C440.242 129.712 440.068 129.172 439.72 128.8C439.372 128.428 438.892 128.242 438.28 128.242C437.68 128.242 437.206 128.428 436.858 128.8C436.51 129.172 436.336 129.712 436.336 130.42V132.166C436.336 132.886 436.51 133.432 436.858 133.804C437.206 134.176 437.68 134.362 438.28 134.362ZM444.696 136V126.604H447V128.548H447.09C447.15 128.296 447.24 128.056 447.36 127.828C447.492 127.588 447.66 127.378 447.864 127.198C448.068 127.018 448.308 126.874 448.584 126.766C448.872 126.658 449.202 126.604 449.574 126.604H450.078V128.782H449.358C448.578 128.782 447.99 128.896 447.594 129.124C447.198 129.352 447 129.724 447 130.24V136H444.696ZM451.763 122.68H454.067V130.708H454.157L455.399 129.016L457.505 126.604H460.115L456.875 130.24L460.457 136H457.721L455.309 131.788L454.067 133.138V136H451.763V122.68ZM464.772 136.216C463.872 136.216 463.116 136.066 462.504 135.766C461.892 135.454 461.352 135.028 460.884 134.488L462.288 133.12C462.636 133.516 463.014 133.828 463.422 134.056C463.842 134.284 464.322 134.398 464.862 134.398C465.414 134.398 465.81 134.302 466.05 134.11C466.302 133.918 466.428 133.654 466.428 133.318C466.428 133.042 466.338 132.826 466.158 132.67C465.99 132.502 465.696 132.388 465.276 132.328L464.34 132.202C463.32 132.07 462.54 131.782 462 131.338C461.472 130.882 461.208 130.222 461.208 129.358C461.208 128.902 461.292 128.494 461.46 128.134C461.628 127.762 461.868 127.45 462.18 127.198C462.492 126.934 462.864 126.736 463.296 126.604C463.74 126.46 464.232 126.388 464.772 126.388C465.228 126.388 465.63 126.424 465.978 126.496C466.338 126.556 466.662 126.652 466.95 126.784C467.238 126.904 467.502 127.06 467.742 127.252C467.982 127.432 468.216 127.636 468.444 127.864L467.094 129.214C466.818 128.926 466.488 128.686 466.104 128.494C465.72 128.302 465.3 128.206 464.844 128.206C464.34 128.206 463.974 128.296 463.746 128.476C463.53 128.656 463.422 128.89 463.422 129.178C463.422 129.49 463.512 129.73 463.692 129.898C463.884 130.054 464.202 130.168 464.646 130.24L465.6 130.366C467.628 130.654 468.642 131.578 468.642 133.138C468.642 133.594 468.546 134.014 468.354 134.398C468.174 134.77 467.916 135.094 467.58 135.37C467.244 135.634 466.836 135.844 466.356 136C465.888 136.144 465.36 136.216 464.772 136.216ZM475.075 136V123.436H477.451V133.894H482.401V136H475.075ZM487.868 136.216C487.196 136.216 486.59 136.102 486.05 135.874C485.522 135.646 485.066 135.316 484.682 134.884C484.31 134.452 484.022 133.936 483.818 133.336C483.614 132.724 483.512 132.04 483.512 131.284C483.512 130.528 483.614 129.85 483.818 129.25C484.022 128.65 484.31 128.14 484.682 127.72C485.066 127.288 485.522 126.958 486.05 126.73C486.59 126.502 487.196 126.388 487.868 126.388C488.54 126.388 489.146 126.502 489.686 126.73C490.226 126.958 490.682 127.288 491.054 127.72C491.438 128.14 491.732 128.65 491.936 129.25C492.14 129.85 492.242 130.528 492.242 131.284C492.242 132.04 492.14 132.724 491.936 133.336C491.732 133.936 491.438 134.452 491.054 134.884C490.682 135.316 490.226 135.646 489.686 135.874C489.146 136.102 488.54 136.216 487.868 136.216ZM487.868 134.362C488.48 134.362 488.96 134.176 489.308 133.804C489.656 133.432 489.83 132.886 489.83 132.166V130.42C489.83 129.712 489.656 129.172 489.308 128.8C488.96 128.428 488.48 128.242 487.868 128.242C487.268 128.242 486.794 128.428 486.446 128.8C486.098 129.172 485.924 129.712 485.924 130.42V132.166C485.924 132.886 486.098 133.432 486.446 133.804C486.794 134.176 487.268 134.362 487.868 134.362ZM499.9 134.434H499.81C499.726 134.674 499.612 134.902 499.468 135.118C499.336 135.322 499.162 135.508 498.946 135.676C498.742 135.844 498.49 135.976 498.19 136.072C497.902 136.168 497.566 136.216 497.182 136.216C496.21 136.216 495.466 135.898 494.95 135.262C494.434 134.626 494.176 133.72 494.176 132.544V126.604H496.48V132.31C496.48 132.958 496.606 133.456 496.858 133.804C497.11 134.14 497.512 134.308 498.064 134.308C498.292 134.308 498.514 134.278 498.73 134.218C498.958 134.158 499.156 134.068 499.324 133.948C499.492 133.816 499.63 133.66 499.738 133.48C499.846 133.288 499.9 133.066 499.9 132.814V126.604H502.204V136H499.9V134.434ZM510.698 134.434H510.608C510.44 134.974 510.122 135.406 509.654 135.73C509.186 136.054 508.64 136.216 508.016 136.216C506.828 136.216 505.916 135.79 505.28 134.938C504.656 134.086 504.344 132.868 504.344 131.284C504.344 129.712 504.656 128.506 505.28 127.666C505.916 126.814 506.828 126.388 508.016 126.388C508.64 126.388 509.186 126.55 509.654 126.874C510.122 127.186 510.44 127.612 510.608 128.152H510.698V122.68H513.002V136H510.698V134.434ZM508.754 134.308C509.306 134.308 509.768 134.176 510.14 133.912C510.512 133.648 510.698 133.27 510.698 132.778V129.79C510.698 129.334 510.512 128.968 510.14 128.692C509.768 128.416 509.306 128.278 508.754 128.278C508.154 128.278 507.668 128.482 507.296 128.89C506.936 129.286 506.756 129.82 506.756 130.492V132.112C506.756 132.784 506.936 133.318 507.296 133.714C507.668 134.11 508.154 134.308 508.754 134.308ZM517.963 136C517.171 136 516.589 135.802 516.217 135.406C515.845 135.01 515.659 134.452 515.659 133.732V122.68H517.963V134.164H519.205V136H517.963ZM526.587 126.604H528.747L524.967 137.674C524.847 138.01 524.709 138.298 524.553 138.538C524.409 138.79 524.235 138.994 524.031 139.15C523.827 139.306 523.581 139.42 523.293 139.492C523.005 139.564 522.669 139.6 522.285 139.6H520.899V137.764H522.591L523.023 136.45L519.657 126.604H521.943L523.581 131.572L524.193 133.948H524.301L524.949 131.572L526.587 126.604ZM530.755 136.198C530.263 136.198 529.897 136.078 529.657 135.838C529.429 135.586 529.315 135.268 529.315 134.884V134.56C529.315 134.176 529.429 133.858 529.657 133.606C529.897 133.354 530.263 133.228 530.755 133.228C531.259 133.228 531.625 133.354 531.853 133.606C532.081 133.858 532.195 134.176 532.195 134.56V134.884C532.195 135.268 532.081 135.586 531.853 135.838C531.625 136.078 531.259 136.198 530.755 136.198Z" fill="#323232" fill-opacity="0.8"/>
</svg>
